<?xml version="1.0" standalone="no"?>
<!DOCTYPE svg PUBLIC "-//W3C//DTD SVG 20010904//EN"
 "http://www.w3.org/TR/2001/REC-SVG-20010904/DTD/svg10.dtd">
<svg version="1.0" xmlns="http://www.w3.org/2000/svg"
 width="300.000000pt" height="130.000000pt" viewBox="0 0 300.000000 130.000000"
 preserveAspectRatio="xMidYMid meet">
<metadata>
Created by potrace 1.10, written by Peter Selinger 2001-2011
</metadata>
<g transform="translate(0.000000,130.000000) scale(0.100000,-0.100000)"
fill="#000000" stroke="none">
<path d="M1801 1041 c-11 -11 -32 -21 -48 -23 -36 -4 -46 -50 -14 -68 15 -8
21 -21 21 -45 l0 -35 70 0 70 0 0 35 c0 22 6 38 15 41 20 8 29 42 15 59 -7 8
-25 15 -41 15 -16 0 -29 4 -29 10 0 5 -9 14 -20 20 -15 8 -24 6 -39 -9z m62
-54 c17 -11 17 -15 2 -45 -22 -44 -58 -44 -76 -1 -11 28 -10 33 6 45 23 17 46
18 68 1z"/>
<path d="M1457 937 c-49 -12 -54 -27 -10 -27 18 0 23 -4 19 -17 -3 -10 -23
-108 -46 -218 -22 -110 -43 -208 -46 -219 -5 -16 -3 -18 22 -12 16 4 31 12 35
17 3 5 16 60 28 122 23 111 24 114 55 125 44 16 81 15 96 -3 11 -13 9 -36 -10
-125 -28 -136 -18 -156 68 -134 30 8 28 24 -3 24 -31 0 -31 7 -5 120 25 107
25 125 0 150 -26 26 -84 26 -133 0 -44 -24 -44 -27 -13 108 26 115 30 109 -57
89z"/>
<path d="M2117 929 c-42 -22 -80 -74 -99 -136 -10 -34 -18 -43 -35 -43 -32 0
-37 -17 -8 -24 29 -7 29 7 -5 -176 -10 -52 -21 -113 -25 -136 -7 -48 -39 -104
-59 -104 -7 0 -25 9 -39 20 -22 17 -26 18 -31 4 -16 -41 -7 -54 34 -54 102 0
132 49 180 295 30 156 25 145 76 145 32 0 44 4 44 15 0 11 -12 15 -44 15 l-44
0 13 44 c28 93 61 131 107 124 15 -2 25 -13 31 -37 10 -41 23 -31 32 27 l7 42
-49 0 c-28 -1 -64 -9 -86 -21z"/>
<path d="M2482 936 c-42 -11 -48 -26 -10 -26 10 0 18 -6 18 -14 0 -8 -18 -101
-40 -207 -23 -107 -39 -205 -38 -219 3 -28 23 -35 74 -25 39 7 46 25 9 25 -34
0 -33 5 20 258 25 118 45 216 45 218 0 7 -32 3 -78 -10z"/>
<path d="M840 893 c1 -10 239 -157 263 -161 9 -2 17 1 17 7 0 5 10 13 21 16
l21 7 -23 23 c-14 13 -78 41 -149 65 -69 23 -131 44 -137 47 -7 2 -13 1 -13
-4z"/>
<path d="M1268 889 c-22 -12 -24 -62 -3 -79 8 -7 26 -12 40 -12 35 0 55 19 55
53 0 42 -50 63 -92 38z"/>
<path d="M1757 853 c-18 -17 -1 -23 68 -23 60 0 75 3 75 15 0 12 -14 15 -68
15 -38 0 -72 -3 -75 -7z"/>
<path d="M2245 804 c-8 -20 -15 -40 -15 -45 0 -5 -13 -9 -30 -9 -35 0 -40 -15
-9 -25 17 -6 20 -12 15 -34 -3 -14 -15 -66 -26 -115 -18 -81 -18 -92 -5 -113
18 -26 55 -30 116 -11 51 15 51 32 0 24 -70 -11 -77 13 -42 153 5 20 12 48 15
64 6 25 10 27 56 27 38 0 50 4 50 15 0 11 -12 15 -46 15 -45 0 -46 1 -41 28 3
15 9 35 12 45 5 13 2 17 -14 17 -14 0 -25 -11 -36 -36z"/>
<path d="M587 736 c-26 -18 -49 -35 -51 -37 -3 -2 92 -4 210 -4 l214 0 0 38 0
37 -162 -1 -163 0 -48 -33z"/>
<path d="M1164 746 c-68 -31 -84 -97 -34 -139 16 -14 40 -29 52 -32 35 -11 58
-36 58 -61 0 -30 -27 -44 -84 -44 -46 0 -46 0 -52 40 -8 46 -21 52 -30 13 -3
-16 -8 -35 -10 -44 -6 -21 42 -39 102 -39 82 0 134 37 134 94 0 42 -17 61 -85
91 -53 23 -69 43 -59 70 9 23 38 35 82 35 38 0 40 -2 46 -35 4 -19 11 -35 15
-35 9 0 33 82 26 88 -12 12 -133 11 -161 -2z"/>
<path d="M1783 753 c-31 -6 -29 -23 2 -23 31 0 32 -11 5 -132 -33 -145 -24
-169 56 -153 39 7 46 25 11 25 -13 0 -26 2 -29 5 -3 3 6 61 20 129 14 67 22
130 19 139 -6 17 -34 20 -84 10z"/>
<path d="M2578 753 c-24 -6 -23 -23 2 -23 11 0 26 -10 34 -23 17 -25 66 -200
66 -234 0 -12 5 -23 10 -25 13 -4 -51 -100 -86 -127 -15 -12 -35 -21 -45 -21
-11 0 -19 -5 -19 -10 0 -7 22 -10 57 -8 l56 3 47 90 c25 50 65 124 87 165 44
79 98 208 91 215 -2 2 -17 1 -32 -3 -25 -7 -30 -16 -47 -79 -19 -78 -57 -173
-69 -173 -4 0 -10 24 -13 53 -5 55 -42 173 -59 195 -10 12 -46 14 -80 5z"/>
<path d="M405 610 l-60 -40 308 0 307 0 0 40 0 40 -247 0 -248 0 -60 -40z"/>
<path d="M228 489 c-46 -30 -66 -58 -32 -45 9 3 184 6 390 6 l374 0 0 35 0 35
-342 0 -343 0 -47 -31z"/>
<path d="M1002 277 c-34 -89 -62 -166 -62 -171 0 -5 36 49 81 120 45 71 89
140 100 155 l18 26 -35 16 c-19 10 -36 17 -37 17 -1 0 -30 -73 -65 -163z"/>
</g>
</svg>
